<svg xmlns="http://www.w3.org/2000/svg" viewBox="0 0 708 278.64"><defs><style>.cls-1{fill:#fff;}.cls-2{fill:#fd0202;}</style></defs><g id="Слой_2" data-name="Слой 2"><g id="Layer_1" data-name="Layer 1"><path class="cls-1" d="M52.37,278H0V217.44H52.33V228H10.6v39.47H52.37Zm-2.75-25.45H15V242H49.59Z"/><path class="cls-1" d="M126.35,272.79q0,5.85-4,5.85-2.92,0-6.57-3.63L76.93,236v42H66.48V222.67A6,6,0,0,1,67.63,219a3.87,3.87,0,0,1,3.28-1.55c2,0,4,1,6,3.1l38.85,39v-42h10.56Z"/><path class="cls-1" d="M210,278H171.5q-13.22,0-21.87-8.78T141,247.07q0-13.31,8.56-21.47t22-8.16h34.15V228H171.5a19.19,19.19,0,0,0-20,18.35c0,.53,0,1.07,0,1.6q0,8.7,5.63,14.11a19.86,19.86,0,0,0,14.33,5.41H199.4V254.25H170.7v-9.67H210Z"/><path class="cls-1" d="M233.59,278H223V217.44h10.56Z"/><path class="cls-1" d="M310.14,272.79q0,5.85-4,5.85c-2,0-4.14-1.21-6.57-3.63l-38.85-39v42H250.26V222.67a6,6,0,0,1,1.16-3.68,3.87,3.87,0,0,1,3.28-1.55c1.95,0,4,1,6,3.1l38.85,39v-42h10.56Z"/><path class="cls-1" d="M378.53,278H326.19V217.44h52.34V228H336.75v39.47h41.78Zm-2.75-25.45h-34.6V242h34.6Z"/><path class="cls-1" d="M439.46,278H387.13V217.44h52.33V228H397.68v39.47h41.78Zm-2.75-25.45H402.12V242h34.59Z"/><path class="cls-1" d="M524,278H508.38l-16.94-17h-22.8V250.53H497a17.76,17.76,0,0,0,9.84-2.58,9.72,9.72,0,0,0,4.53-8.6Q511.37,228,497,228H462.44v50H451.88V217.44h43.46q11.71,0,18.9,5.06,8.25,5.76,8.25,16.94a19.36,19.36,0,0,1-4.79,13.13,23.41,23.41,0,0,1-12.07,7.18Z"/><path class="cls-1" d="M547.77,278H537.21V217.44h10.56Z"/><path class="cls-1" d="M624.31,272.79q0,5.85-4,5.85-2.92,0-6.56-3.63L574.9,236v42H564.44V222.67a6.07,6.07,0,0,1,1.15-3.68,3.88,3.88,0,0,1,3.29-1.55c2,0,4,1,6,3.1l38.85,39v-42h10.55Z"/><path class="cls-1" d="M708,278H669.5q-13.21,0-21.86-8.78T639,247.07q0-13.31,8.56-21.47t22-8.16h34.15V228H669.56A19.19,19.19,0,0,0,649.61,248q0,8.78,5.63,14.11a19.86,19.86,0,0,0,14.32,5.41H697.5V254.25H668.76v-9.67H708Z"/><path class="cls-1" d="M201.18,177.07H89q-38.53,0-63.73-25.6T0,86.84Q0,48.07,25,24.31T89,.53h99.79V31.29H89q-25.35,0-41.76,16.29T30.83,89.46q0,25.35,16.41,41.11T89,146.31h81.44V107.78H86.65V79.6H201.18Z"/><path class="cls-1" d="M390.2,17.31A40.69,40.69,0,0,0,380.1,5.67Q372.89,0,366.1,0q-6.21,0-14,5.94a41.63,41.63,0,0,0-10,11.37l-95.92,159.5h39.56L365.37,46l49.12,81.44,29.74,49.38,39.56.26Z"/><path class="cls-1" d="M559.56,177.07H528.79V.49h30.77Zm148.4,0H677.19V103.64H573.52V72.88H677.19V.49H708Z"/><polygon class="cls-2" points="413.92 176.81 316.36 176.81 365.37 96.28 413.92 176.81"/></g></g></svg>